<svg xmlns="http://www.w3.org/2000/svg" version="1.1" xmlns:xlink="http://www.w3.org/1999/xlink" xmlns:svgjs="http://svgjs.com/svgjs" width="1920" height="1080" preserveAspectRatio="none" viewBox="0 0 1920 1080"><g mask="url(&quot;#SvgjsMask1055&quot;)" fill="none"><rect width="1920" height="1080" x="0" y="0" fill="#0e2a47"></rect><path d="M0,628.869C116.467,632.838,209.567,541.62,308.493,480.024C408.927,417.488,524.028,368.856,582.644,266.085C643.494,159.398,672.854,25.412,634.292,-91.197C597.142,-203.536,471.206,-252.663,384.48,-333.154C308.737,-403.451,257.133,-509.223,156.88,-534.286C57.4,-559.156,-43.124,-506.673,-136.031,-463.278C-218.034,-424.976,-273.7,-354.395,-345.694,-299.546C-440.403,-227.391,-578.378,-199.136,-625.984,-90.003C-675.365,23.199,-658.56,165.853,-594.87,271.668C-532.833,374.736,-398.403,397.521,-295.27,459.449C-195.976,519.072,-115.753,624.924,0,628.869" fill="#0b223a"></path><path d="M1920 1704.076C2057.724 1720.137 2200.855 1770.585 2327.427 1713.969 2459.781 1654.767 2562.683 1532.2060000000001 2610.359 1395.277 2656.381 1263.098 2612.81 1121.285 2581.265 984.924 2552.115 858.92 2522.304 729.1320000000001 2434.325 634.335 2347.776 541.079 2218.667 512.748 2100.136 466.51199999999994 1969.779 415.663 1842.341 320.048 1705.686 350.11300000000006 1567.637 380.485 1476.0729999999999 508.83399999999995 1391.836 622.3430000000001 1312.476 729.28 1250.714 849.337 1236.911 981.787 1223.423 1111.213 1255.654 1240.509 1315.364 1356.128 1373.174 1468.068 1460.188 1562.73 1569.384 1625.569 1675.335 1686.54 1798.581 1689.917 1920 1704.076" fill="#113255"></path></g><defs><mask id="SvgjsMask1055"><rect width="1920" height="1080" fill="#ffffff"></rect></mask></defs></svg>